<?xml version="1.0" encoding="utf-8"?>
<!-- Svg Vector Icons : http://www.onlinewebfonts.com/icon -->
<!DOCTYPE svg PUBLIC "-//W3C//DTD SVG 1.1//EN" "http://www.w3.org/Graphics/SVG/1.1/DTD/svg11.dtd">
<svg version="1.1" xmlns="http://www.w3.org/2000/svg" xmlns:xlink="http://www.w3.org/1999/xlink" x="0px" y="0px" viewBox="0 0 1000 1000" enable-background="new 0 0 1000 1000" xml:space="preserve">
<metadata> Svg Vector Icons : http://www.onlinewebfonts.com/icon </metadata>
<g><g transform="translate(0.000000,512.000000) scale(0.100000,-0.100000)"><path d="M1382.5,5084.9c-60.4-23.4-331.3-286.5-526.2-508.7c-387.9-440.5-608.1-820.6-721.2-1245.5c-25.3-91.6-35.1-200.8-35.1-389.8c0-317.7,31.2-458,159.8-721.2c214.4-438.5,567.2-645.1,1350.7-787.4l284.6-52.6l348.9,132.5l348.9,134.5l136.4,272.9c124.7,249.5,278.7,641.2,259.2,660.7c-3.9,3.9-155.9,17.5-337.2,29.2c-970.6,58.5-1436.5,222.2-1600.2,559.4c-44.8,89.6-54.6,140.3-62.4,307.9c-7.8,175.4-2,224.1,42.9,382c64.3,230,261.2,631.5,428.8,879c167.6,249.5,177.4,290.4,76,345C1487.7,5108.3,1441,5108.3,1382.5,5084.9z"/><path d="M8453.8,5081c-23.4-11.7-48.7-40.9-54.6-66.3c-11.7-48.7,9.7-93.6,159.8-309.9c148.1-214.4,347-625.7,409.3-845.9c44.8-157.9,50.7-206.6,42.9-382c-7.8-167.6-17.5-218.3-62.4-307.9c-163.7-337.2-629.6-500.9-1600.2-559.4c-181.3-11.7-333.3-25.3-337.2-29.2c-19.5-19.5,134.5-411.3,259.2-660.7l136.4-272.9l348.9-134.5l346.9-132.5l276.8,50.7c596.4,109.2,896.6,231.9,1132.4,467.8c116.9,116.9,161.7,181.3,231.9,325.5c124.7,263.1,155.9,403.5,155.9,717.3c0,323.5-41,495.1-191,810.8c-159.8,335.2-339.2,582.8-686.1,957C8695.4,5061.5,8574.6,5141.4,8453.8,5081z"/><path d="M4483.5,2960.4c-85.8-9.7-274.8-44.8-419.1-78c-144.2-35.1-329.4-68.2-409.3-74.1c-146.2-9.7-226.1-35.1-269-87.7c-13.6-15.6-46.8-105.3-74.1-198.8c-27.3-95.5-83.8-259.2-126.7-368.4c-87.7-220.3-341.1-723.1-384-756.3c-52.6-44.8-1054.5-411.3-1341-491.2C1152.5,820.3,957.6,793,712,800.8c-161.8,3.9-241.7,15.6-290.4,40.9c-37,17.5-103.3,33.1-150.1,33.1c-66.3,0-91.6-9.7-122.8-50.7c-23.4-29.2-40.9-72.1-40.9-95.5c0-48.7,294.3-461.9,563.3-789.4c491.2-600.3,925.8-902.4,1356.6-947.2c103.3-9.7,189.1,0,380.1,42.9c42.9,9.7,54.6,0,91.6-74.1c21.4-46.8,103.3-171.5,179.3-278.7c78-107.2,165.7-247.5,194.9-311.9c134.5-282.6,218.3-678.3,259.2-1218.2l21.4-309.9l-70.2-152c-235.8-506.8-54.6-1011.6,479.5-1337.1c189.1-115,337.2-154,598.4-159.8c122.8-1.9,280.7-15.6,350.8-29.2c171.5-35.1,805-35.1,974.5,0c70.2,13.6,218.3,27.3,331.3,29.2c237.8,3.9,346.9,29.2,536,118.9c263.1,122.8,506.8,372.3,594.5,606.2c99.4,265.1,89.6,508.7-33.2,771.8l-70.2,152l23.4,325.5c31.2,419.1,81.8,719.2,169.6,976.5c78,231.9,117,307.9,296.3,557.4c68.2,97.5,144.2,212.5,167.6,259.2c35.1,74.1,46.7,83.8,89.6,74.1c292.4-66.3,424.9-60.4,664.6,27.3c438.5,159.8,844,539.9,1438.4,1350.7c113,155.9,196.8,290.4,196.8,315.8c0,23.4-17.5,66.3-40.9,95.5c-33.2,40.9-56.5,50.7-126.7,50.7c-50.7,0-109.2-13.6-138.4-33.1c-44.8-29.2-99.4-35.1-366.4-33.1c-343,0-446.3,19.5-871.3,155.9c-280.6,89.7-1083.7,391.8-1140.2,428.8c-72.1,44.8-382,699.7-489.2,1031.1c-115,352.8-126.7,362.5-360.6,382c-87.7,7.8-274.8,40.9-415.2,74.1c-331.3,78-571.1,103.3-773.8,78c-87.7-9.7-208.5-13.6-267-7.8C4676.4,2974.1,4635.5,2974.1,4483.5,2960.4z M5005.8,2488.7c526.2,13.7,539.9,11.7,855.6-60.4c167.6-40.9,323.5-72.1,345-72.1c25.3,0,48.7-17.5,56.5-42.9c181.3-514.6,403.5-960.9,762.1-1532c142.3-228,276.8-460,298.2-514.6c58.5-155.9,48.7-313.8-33.1-590.6c-93.6-304-189.1-504.8-347-725.1c-165.7-228-249.5-382-325.5-600.3c-101.4-290.4-159.8-598.4-204.6-1064.2l-11.7-128.7l-95.5,25.3c-216.3,56.5-372.3-87.7-313.8-286.5c27.3-87.7,72.1-122.8,214.4-165.7c179.3-52.6,319.6-218.3,345-403.5c40.9-298.2-278.7-635.4-635.4-668.5c-99.4-9.7-191,0-399.6,42.9c-374.2,74.1-652.9,74.1-1033-1.9c-313.8-62.4-448.3-58.5-619.8,17.5c-130.6,56.5-288.5,198.8-360.6,323.5c-70.2,117-74.1,319.7-9.7,440.5c62.4,118.9,181.3,216.4,309.9,253.4c126.7,37,196.9,99.4,214.4,194.9c33.1,181.3-124.7,304.1-323.5,253.4l-95.5-25.3l-11.7,128.7c-74.1,781.6-216.3,1239.6-502.9,1627.5c-163.7,220.2-253.4,395.7-346.9,676.3c-62.4,187.1-81.9,282.6-89.7,419.1c-13.6,220.2-1.9,247.5,298.2,728.9c432.7,690,621.8,1068.1,797.2,1594.3c3.9,11.7,27.3,23.4,50.7,23.4c21.4,0,173.5,29.2,335.2,66.3c376.2,85.8,397.6,87.7,608.1,74.1C4834.3,2490.7,4953.2,2486.8,5005.8,2488.7z M2398,726.8l-128.6-212.5L2168,490.9c-214.4-50.7-563.3-72.1-775.7-46.8c-111.1,11.7-228,29.2-261.2,39l-58.5,15.6l58.5,13.6c317.7,70.2,664.6,173.5,992.1,292.4c214.4,78,393.7,140.3,397.6,138.4C2522.7,941.2,2468.1,843.7,2398,726.8z M8089.3,728.7c161.7-54.6,399.6-124.7,526.3-155.9c333.3-76,335.2-78,165.7-109.2c-202.7-37-647.1-31.2-869.3,9.7l-177.4,35.1l-124.7,206.6c-68.2,113.1-128.7,214.4-130.6,222.2c-3.9,9.7,66.3-11.7,155.9-44.8C7722.9,859.3,7929.4,785.2,8089.3,728.7z M1127.2,171.3c105.3-19.5,249.5-37,319.7-37c87.7,0,140.3-9.7,161.8-29.2c35.1-33.1,290.4-87.7,405.4-87.7c136.4,0,154-13.7,167.6-122.8c5.9-56.5,40.9-202.7,78-325.5c44.8-148.1,60.4-228,46.8-235.8c-42.9-27.3-206.6-37-302.1-19.5C1760.6-639.5,1532.6-505,1255.8-240C1096-89.9,829,212.2,829,239.5c0,5.9,23.4,2,54.6-9.7C912.8,218.1,1021.9,192.7,1127.2,171.3z M9036.5,68c-454.2-536-890.7-805-1231.8-760.1c-48.7,5.8-99.4,17.5-113.1,25.3c-13.6,9.7,0,79.9,44.8,228c37,118.9,72.1,265.1,79.9,323.5C7832,3.7,7845.7,15.4,7982.1,17.3c116.9,2,372.3,54.6,405.4,83.8c21.5,17.6,99.4,31.2,228.1,39c107.2,5.8,274.8,31.2,370.3,56.5c97.5,25.3,179.3,44.8,183.2,40.9C9173,235.6,9112.6,157.6,9036.5,68z"/><path d="M3380.3,602c-56.5-33.1-83.8-126.7-52.6-187.1c35.1-76,101.3-105.3,239.7-105.3c331.3,0,668.5-183.2,877.1-473.6c115-161.8,150.1-169.6,372.3-97.5L5000-201l183.2-60.4c210.5-68.2,269-60.4,333.3,50.7c21.4,35.1,99.4,124.7,175.4,200.8c204.7,204.6,469.7,319.6,740.7,319.6c138.4,0,204.6,29.2,239.7,105.3c31.2,62.4,3.9,155.9-56.5,187.1c-85.8,46.8-446.3,5.8-664.7-78c-167.6-62.4-380.1-210.5-522.3-364.5L5302.1,23.1l-68.2,23.4c-66.3,23.4-68.2,25.3-78,152c-11.7,152-56.5,214.4-155.9,214.4s-144.2-62.4-155.9-214.4c-9.7-126.7-11.7-128.6-78-152l-68.2-23.4l-130.6,140.4c-214.4,230-454.1,364.5-760.1,426.8C3641.5,625.4,3429,631.3,3380.3,602z"/><path d="M3037.3-43.1c-107.2-31.2-107.2-146.2,0-368.4C3121.1-581.1,3349.1-815,3507-889c130.6-60.4,298.2-81.9,405.4-52.6l74.1,19.5l29.2-99.4c15.6-56.5,40.9-204.7,56.5-331.3c15.6-126.7,37-241.7,50.7-255.3c33.1-40.9,116.9-54.6,177.4-31.2c85.8,37,101.3,103.3,76,323.6c-33.1,282.6-87.7,481.4-191,688c-157.9,315.8-368.4,495-678.3,575C3376.4-19.7,3136.7-13.9,3037.3-43.1z"/><path d="M6471.6-58.7c-304.1-85.8-502.9-259.2-656.9-569.1c-107.2-212.5-159.8-401.5-191-682.2c-25.4-230-9.7-292.4,79.9-329.4c74.1-31.2,163.7,3.9,189,74.1c9.7,29.2,29.2,142.3,40.9,251.4c13.7,111.1,37,243.6,52.6,296.3l27.3,95.5l74-19.5c103.3-29.2,280.7-5.8,409.3,54.6c280.7,132.5,600.3,596.4,539.9,785.5C7011.4-19.7,6693.8,5.6,6471.6-58.7z"/><path d="M3758.4-3520.3c-66.3-35.1-122.8-132.5-122.8-212.5c0-200.8,313.8-411.3,424.9-284.6c17.5,21.4,37,62.4,42.9,89.6l9.7,50.7l124.7-91.6c165.7-126.7,267-124.7,315.8,7.8c29.2,76-13.6,148.1-146.2,245.6C4150.2-3522.2,3900.7-3448.2,3758.4-3520.3z"/><path d="M5941.4-3518.3c-192.9-62.4-483.3-272.9-502.8-362.5c-15.6-72.1,27.3-148.1,97.5-175.4c62.4-23.4,93.5-11.7,233.9,93.6l117,85.8l13.6-64.3c52.6-261.2,493.1-27.3,458,241.7c-15.6,120.8-101.3,193-232,200.8C6070.1-3495,5986.2-3502.7,5941.4-3518.3z"/></g></g>
</svg>